<svg width="110" height="125" viewBox="0 0 110 125" fill="none" xmlns="http://www.w3.org/2000/svg">
<path d="M106.735 4.20793C106.724 4.21893 106.713 4.21892 106.713 4.24192L106.69 4.26393C106.656 4.29893 106.644 4.30992 106.656 4.30992L73.9647 38.6599L66.2647 46.7529C66.2509 46.7427 66.2353 46.7353 66.2187 46.7309L66.0827 46.6629L34.5967 32.6129L35.7447 32.0789L41.0527 29.5899L48.4527 26.1229C48.4658 26.1119 48.4812 26.104 48.4977 26.0999H48.5097L103.73 0.240913C104.257 -0.006631 104.854 -0.0655376 105.42 0.0740728C105.985 0.213684 106.486 0.543359 106.838 1.00791C107.19 1.47247 107.372 2.04375 107.353 2.62623C107.334 3.20871 107.116 3.76708 106.735 4.20793Z" fill="url(#paint0_linear_51_504)"/>
<g style="mix-blend-mode:multiply" opacity="0.2">
<g style="mix-blend-mode:multiply" opacity="0.2">
<path d="M2.42155 21.3831H2.43354C2.42154 21.3941 2.42155 21.4051 2.41055 21.4171C2.40969 21.4109 2.41024 21.4047 2.41215 21.3988C2.41405 21.3929 2.41727 21.3875 2.42155 21.3831Z" fill="black"/>
</g>
</g>
<g style="mix-blend-mode:multiply" opacity="0.2">
<g style="mix-blend-mode:multiply" opacity="0.2">
<path d="M66.2688 46.753C66.2688 46.753 65.2338 46.378 63.4378 45.696C61.6378 44.98 59.0728 44.026 56.0158 42.775C52.9578 41.547 49.3998 40.081 45.6158 38.467C41.8318 36.853 37.8068 35.08 33.7828 33.307C31.7828 32.397 29.7828 31.499 27.8158 30.601C25.8488 29.726 23.9278 28.801 22.0528 27.942C18.3248 26.202 14.8578 24.542 11.9019 23.077C10.4129 22.36 9.07185 21.677 7.86685 21.065C7.27585 20.765 6.70785 20.473 6.20685 20.235C5.75714 20.0232 5.25859 19.9369 4.76386 19.985C4.04672 20.0502 3.37478 20.3636 2.86385 20.871C2.81895 20.9136 2.77718 20.9594 2.73885 21.008C2.70385 21.042 2.66985 21.087 2.63885 21.121C2.60562 21.1516 2.57517 21.1851 2.54785 21.221C2.94607 20.5778 3.56659 20.1033 4.29161 19.8874C5.01664 19.6715 5.79568 19.7294 6.48085 20.05L34.6028 32.61L35.7508 32.076C39.3508 33.701 42.9458 35.327 46.3108 36.907C50.0388 38.646 53.5058 40.317 56.4718 41.772C59.4378 43.227 61.8718 44.488 63.5878 45.352C64.8718 46.012 65.7358 46.466 66.0878 46.66L66.2238 46.728C66.2403 46.7334 66.2555 46.7419 66.2688 46.753Z" fill="black"/>
</g>
</g>
<path d="M66.2692 46.753L53.8692 59.791C53.8605 59.8013 53.8531 59.8127 53.8472 59.825C53.8472 59.825 53.8352 59.814 53.8352 59.825L43.9462 70.225C43.8031 70.3774 43.6516 70.5216 43.4922 70.657C42.8701 71.184 42.1457 71.5767 41.3645 71.8101C40.5833 72.0436 39.7622 72.1129 38.9529 72.0136C38.1436 71.9143 37.3637 71.6486 36.6621 71.2333C35.9605 70.8179 35.3524 70.2618 34.8762 69.6L15.1542 42.206V42.195C15.1312 42.183 15.1312 42.172 15.1312 42.172L14.8932 41.842L2.61723 24.803C2.2619 24.3316 2.05031 23.7676 2.00791 23.1787C1.96552 22.5899 2.09411 22.0014 2.37823 21.484C2.38879 21.4706 2.3966 21.4553 2.40123 21.439C2.40276 21.439 2.40428 21.4387 2.40568 21.4381C2.40708 21.4374 2.40835 21.4365 2.40939 21.4354C2.41042 21.4343 2.4112 21.4329 2.41169 21.4315C2.41218 21.43 2.41237 21.4285 2.41223 21.427V21.416C2.41138 21.4098 2.41192 21.4036 2.41383 21.3977C2.41573 21.3918 2.41895 21.3864 2.42323 21.382H2.43522C2.45722 21.336 2.50323 21.291 2.54823 21.223C2.94645 20.5798 3.56697 20.1052 4.29199 19.8893C5.01701 19.6735 5.79606 19.7314 6.48123 20.052L34.6032 32.612L66.0892 46.662L66.2253 46.73C66.2411 46.7348 66.2561 46.7426 66.2692 46.753Z" fill="url(#paint1_linear_51_504)"/>
<g style="mix-blend-mode:multiply" opacity="0.2">
<g style="mix-blend-mode:multiply" opacity="0.2">
<path d="M73.9647 38.6601L66.2647 46.7531C66.2509 46.7429 66.2353 46.7354 66.2187 46.7311L34.5967 32.6131L35.7447 32.0791L41.0527 29.5901L73.9647 38.6601Z" fill="black"/>
</g>
</g>
<g style="mix-blend-mode:screen" opacity="0.5">
<g style="mix-blend-mode:screen" opacity="0.5">
<path d="M2.42152 21.3831H2.43351C2.42151 21.4051 2.41052 21.4171 2.41052 21.4281C2.40889 21.4123 2.41278 21.3964 2.42152 21.3831Z" fill="white"/>
</g>
</g>
<g style="mix-blend-mode:screen" opacity="0.5">
<g style="mix-blend-mode:screen" opacity="0.5">
<path d="M66.2688 46.753C66.2688 46.753 65.2338 46.378 63.4378 45.696C61.6378 44.98 59.0728 44.026 56.0158 42.775C52.9578 41.547 49.3998 40.081 45.6158 38.467C41.8318 36.853 37.8068 35.08 33.7828 33.307C31.7828 32.397 29.7828 31.499 27.8158 30.601C25.8488 29.726 23.9278 28.801 22.0528 27.942C18.3248 26.202 14.8578 24.542 11.9019 23.077C10.4129 22.36 9.07185 21.677 7.86685 21.065C7.27585 20.765 6.70785 20.473 6.20685 20.235C5.75714 20.0232 5.25859 19.9369 4.76386 19.985C4.04672 20.0502 3.37478 20.3636 2.86385 20.871C2.81895 20.9136 2.77718 20.9594 2.73885 21.008C2.70233 21.0427 2.66888 21.0806 2.63885 21.121C2.60562 21.1516 2.57517 21.1851 2.54785 21.221C2.94607 20.5778 3.56659 20.1033 4.29161 19.8874C5.01664 19.6715 5.79568 19.7294 6.48085 20.05L34.6028 32.61L66.0888 46.66L66.2248 46.728C66.2409 46.7335 66.2558 46.742 66.2688 46.753Z" fill="white"/>
</g>
</g>
<g style="mix-blend-mode:multiply" opacity="0.2">
<g style="mix-blend-mode:multiply" opacity="0.2">
<path d="M53.8333 59.8251L43.9443 70.2251C43.8012 70.3775 43.6496 70.5217 43.4903 70.6571C42.8682 71.1841 42.1438 71.5768 41.3626 71.8102C40.5814 72.0437 39.7603 72.113 38.951 72.0137C38.1418 71.9144 37.3618 71.6487 36.6602 71.2334C35.9586 70.818 35.3505 70.2619 34.8743 69.6001L15.1523 42.2061C15.2893 42.3541 15.8573 43.0241 16.7523 44.1061C17.7523 45.3561 19.2303 47.1181 20.9243 49.2781C22.6183 51.4381 24.5843 53.9721 26.6413 56.7231C28.7103 59.4511 30.8583 62.4231 33.0183 65.3731L34.6093 67.6131L35.3933 68.7261L35.5983 68.9991C35.6502 69.0788 35.7073 69.1549 35.7693 69.2271C35.8892 69.3897 36.0231 69.5416 36.1693 69.6811C36.6933 70.211 37.3275 70.6191 38.0269 70.8764C38.7263 71.1337 39.4738 71.234 40.2163 71.1701C40.9424 71.1104 41.6476 70.8974 42.2853 70.5451C42.5905 70.377 42.8762 70.1758 43.1373 69.9451L43.3653 69.7521L43.4553 69.6721L43.5553 69.5581L43.9753 69.1491C45.0893 68.0351 46.1583 67.0011 47.1583 66.0491C49.1253 64.1391 50.8303 62.6051 51.9893 61.4911C53.0283 60.5451 53.6863 59.9451 53.8333 59.8251Z" fill="black"/>
</g>
</g>
<g style="mix-blend-mode:screen" opacity="0.5">
<g style="mix-blend-mode:screen" opacity="0.5">
<path d="M107.042 3.66198C107.181 3.34769 107.25 3.00634 107.242 2.66244C107.234 2.31855 107.15 1.98066 106.997 1.673C106.793 1.21469 106.441 0.837739 105.998 0.602167C105.556 0.366595 105.047 0.285921 104.553 0.37298C103.931 0.578737 103.336 0.857358 102.78 1.203C102.132 1.532 101.45 1.88498 100.744 2.24798C97.9025 3.71498 94.5725 5.38601 90.9915 7.14801C89.1915 8.01201 87.3435 8.94798 85.4445 9.82998C83.5456 10.712 81.6376 11.638 79.7166 12.547C75.8516 14.347 71.9866 16.127 68.3376 17.753C64.6886 19.379 61.2796 20.867 58.3376 22.106C55.3936 23.368 52.9155 24.334 51.1875 25.05C49.6985 25.65 48.7436 26.005 48.5166 26.096L103.737 0.236994C104.264 -0.00811072 104.859 -0.0651325 105.424 0.0754334C105.988 0.216 106.487 0.545668 106.838 1.00952C107.189 1.47337 107.37 2.0434 107.351 2.62466C107.333 3.20592 107.116 3.76332 106.737 4.20401C106.858 4.03523 106.96 3.85342 107.042 3.66198Z" fill="white"/>
</g>
</g>
<g style="mix-blend-mode:screen" opacity="0.3">
<g style="mix-blend-mode:screen" opacity="0.3">
<path d="M104.428 3.35499L100.279 7.709C97.2901 10.8463 94.3044 13.9834 91.3224 17.12L50.1064 27.862C59.7684 23.338 69.4351 18.814 79.1064 14.29C86.8011 10.69 94.5011 7.08301 102.206 3.46901C102.945 3.12801 103.684 2.775 104.423 2.434C105.328 2.002 104.813 2.94499 104.428 3.35499Z" fill="white"/>
</g>
</g>
<g style="mix-blend-mode:screen" opacity="0.3">
<g style="mix-blend-mode:screen" opacity="0.3">
<path d="M62.4155 47.5151C60.5281 49.4825 58.6488 51.4564 56.7775 53.4371C56.2545 53.9831 55.7325 54.5371 55.2095 55.0851L5.22852 22.0991C5.80349 22.2015 6.35448 22.4097 6.85352 22.7131C14.9475 26.3271 23.0445 29.9418 31.1445 33.5571C41.5691 38.2158 51.9928 42.8685 62.4155 47.5151Z" fill="white"/>
</g>
</g>
<path d="M2.176 115V92.6H16.64V95.896H6.272V102.168H14.656V105.4H6.272V115H2.176ZM25.5173 115.384C23.9813 115.384 22.5946 115.032 21.3573 114.328C20.1413 113.624 19.1706 112.653 18.4453 111.416C17.7413 110.157 17.3893 108.707 17.3893 107.064C17.3893 105.421 17.7519 103.981 18.4773 102.744C19.2026 101.485 20.1733 100.504 21.3893 99.8C22.6266 99.096 24.0133 98.744 25.5493 98.744C27.0639 98.744 28.4293 99.096 29.6453 99.8C30.8826 100.504 31.8533 101.485 32.5573 102.744C33.2826 103.981 33.6453 105.421 33.6453 107.064C33.6453 108.707 33.2826 110.157 32.5573 111.416C31.8533 112.653 30.8826 113.624 29.6453 114.328C28.4079 115.032 27.0319 115.384 25.5173 115.384ZM25.5173 111.832C26.5839 111.832 27.5119 111.437 28.3013 110.648C29.0906 109.837 29.4853 108.643 29.4853 107.064C29.4853 105.485 29.0906 104.301 28.3013 103.512C27.5119 102.701 26.5946 102.296 25.5493 102.296C24.4613 102.296 23.5226 102.701 22.7333 103.512C21.9653 104.301 21.5813 105.485 21.5813 107.064C21.5813 108.643 21.9653 109.837 22.7333 110.648C23.5226 111.437 24.4506 111.832 25.5173 111.832ZM43.9635 115.384C42.4275 115.384 41.0408 115.032 39.8035 114.328C38.5875 113.624 37.6168 112.653 36.8915 111.416C36.1875 110.157 35.8355 108.707 35.8355 107.064C35.8355 105.421 36.1982 103.981 36.9235 102.744C37.6488 101.485 38.6195 100.504 39.8355 99.8C41.0728 99.096 42.4595 98.744 43.9955 98.744C45.5102 98.744 46.8755 99.096 48.0915 99.8C49.3288 100.504 50.2995 101.485 51.0035 102.744C51.7288 103.981 52.0915 105.421 52.0915 107.064C52.0915 108.707 51.7288 110.157 51.0035 111.416C50.2995 112.653 49.3288 113.624 48.0915 114.328C46.8542 115.032 45.4782 115.384 43.9635 115.384ZM43.9635 111.832C45.0302 111.832 45.9582 111.437 46.7475 110.648C47.5368 109.837 47.9315 108.643 47.9315 107.064C47.9315 105.485 47.5368 104.301 46.7475 103.512C45.9582 102.701 45.0408 102.296 43.9955 102.296C42.9075 102.296 41.9688 102.701 41.1795 103.512C40.4115 104.301 40.0275 105.485 40.0275 107.064C40.0275 108.643 40.4115 109.837 41.1795 110.648C41.9688 111.437 42.8968 111.832 43.9635 111.832ZM62.0897 115.384C60.5964 115.384 59.2631 115.021 58.0897 114.296C56.9164 113.571 55.9884 112.579 55.3057 111.32C54.6231 110.061 54.2817 108.632 54.2817 107.032C54.2817 105.432 54.6231 104.013 55.3057 102.776C55.9884 101.517 56.9164 100.536 58.0897 99.832C59.2631 99.1067 60.5964 98.744 62.0897 98.744C63.2844 98.744 64.3297 98.968 65.2257 99.416C66.1217 99.864 66.8471 100.493 67.4017 101.304V91.96H71.4977V115H67.8497L67.4017 112.728C66.8897 113.432 66.2071 114.051 65.3537 114.584C64.5217 115.117 63.4337 115.384 62.0897 115.384ZM62.9537 111.8C64.2764 111.8 65.3537 111.363 66.1858 110.488C67.0391 109.592 67.4657 108.451 67.4657 107.064C67.4657 105.677 67.0391 104.547 66.1858 103.672C65.3537 102.776 64.2764 102.328 62.9537 102.328C61.6524 102.328 60.5751 102.765 59.7217 103.64C58.8684 104.515 58.4417 105.645 58.4417 107.032C58.4417 108.419 58.8684 109.56 59.7217 110.456C60.5751 111.352 61.6524 111.8 62.9537 111.8ZM76.9168 96.664C76.1701 96.664 75.5514 96.44 75.0608 95.992C74.5914 95.544 74.3568 94.9787 74.3568 94.296C74.3568 93.6133 74.5914 93.0587 75.0608 92.632C75.5514 92.184 76.1701 91.96 76.9168 91.96C77.6634 91.96 78.2714 92.184 78.7408 92.632C79.2314 93.0587 79.4768 93.6133 79.4768 94.296C79.4768 94.9787 79.2314 95.544 78.7408 95.992C78.2714 96.44 77.6634 96.664 76.9168 96.664ZM74.8688 115V99.128H78.9648V115H74.8688ZM83.016 115V102.552H80.84V99.128H83.016V97.272C83.016 95.352 83.496 93.9867 84.456 93.176C85.4373 92.3653 86.76 91.96 88.424 91.96H90.184V95.448H89.064C88.36 95.448 87.8587 95.5867 87.56 95.864C87.2613 96.1413 87.112 96.6107 87.112 97.272V99.128H90.536V102.552H87.112V115H83.016ZM94.804 122.04L98.484 113.944H97.524L91.348 99.128H95.796L100.244 110.296L104.884 99.128H109.236L99.156 122.04H94.804Z" fill="black"/>
<defs>
<linearGradient id="paint0_linear_51_504" x1="14.8794" y1="23.3765" x2="107.354" y2="23.3765" gradientUnits="userSpaceOnUse">
<stop stop-color="#F8007A"/>
<stop offset="1" stop-color="#FC7300"/>
</linearGradient>
<linearGradient id="paint1_linear_51_504" x1="58.8782" y1="36.5482" x2="13.5601" y2="54.207" gradientUnits="userSpaceOnUse">
<stop stop-color="#FCC400"/>
<stop offset="0.162" stop-color="#FBC000"/>
<stop offset="0.307" stop-color="#FBB500"/>
<stop offset="0.446" stop-color="#FBA300"/>
<stop offset="0.581" stop-color="#FA8900"/>
<stop offset="0.712" stop-color="#FA6800"/>
<stop offset="0.842" stop-color="#F93F00"/>
<stop offset="0.967" stop-color="#F81000"/>
<stop offset="1" stop-color="#F80300"/>
</linearGradient>
</defs>
</svg>
