<svg width="44" height="44" viewBox="0 0 44 44" fill="none" xmlns="http://www.w3.org/2000/svg">
<path fill-rule="evenodd" clip-rule="evenodd" d="M41.0302 21.8828C41.0302 32.4576 32.4576 41.0302 21.8828 41.0302C11.3079 41.0302 2.73535 32.4576 2.73535 21.8828C2.73535 11.3079 11.3079 2.73535 21.8828 2.73535C32.4576 2.73535 41.0302 11.3079 41.0302 21.8828ZM28.6172 36.854C26.5624 37.7797 24.2827 38.2948 21.8828 38.2948C17.9207 38.2948 14.2866 36.8909 11.4507 34.5534C14.4008 29.6029 19.1459 25.8494 24.7864 24.1888C26.4065 28.2536 27.6945 32.4864 28.6172 36.854ZM31.1128 35.4554C30.2038 31.3678 28.9851 27.3969 27.4827 23.5688C28.7334 23.3594 30.0181 23.2504 31.3283 23.2504C33.6948 23.2504 35.9762 23.6055 38.1233 24.2646C37.4479 28.9102 34.8265 32.925 31.1128 35.4554ZM38.2896 21.4633C36.0735 20.8452 33.7385 20.5151 31.3283 20.5151C29.6481 20.5151 28.0054 20.6754 26.4147 20.9814C25.9998 20.0238 25.5669 19.0759 25.1164 18.138C28.6971 16.5487 32.0063 14.4588 34.9546 11.9574C36.9718 14.61 38.2001 17.8953 38.2896 21.4633ZM33.1231 9.92402C30.3552 12.2623 27.2492 14.2122 23.8888 15.69C22.1149 12.2979 20.1071 9.04761 17.887 5.96055C19.166 5.64058 20.5046 5.4707 21.8828 5.4707C26.2321 5.4707 30.1863 7.16254 33.1231 9.92402ZM15.1846 6.89528C10.3666 9.05181 6.77829 13.4634 5.76215 18.7875C6.69583 18.8561 7.63909 18.891 8.59073 18.891C13.0602 18.891 17.349 18.1206 21.3322 16.705C19.5231 13.2762 17.4659 9.99834 15.1846 6.89528ZM5.47487 21.509C5.47209 21.6333 5.4707 21.7579 5.4707 21.8828C5.4707 25.9749 6.96835 29.7172 9.44544 32.5916C12.7085 27.4209 17.7551 23.4857 23.7227 21.6518C23.3542 20.815 22.9715 19.9859 22.5748 19.1648C18.213 20.7573 13.503 21.6264 8.59073 21.6264C7.54263 21.6264 6.50353 21.5868 5.47487 21.509Z" fill="#E84C88"/>
</svg>
