<svg width="43" height="41" viewBox="0 0 43 41" fill="none" xmlns="http://www.w3.org/2000/svg">
<path fill-rule="evenodd" clip-rule="evenodd" d="M21.4053 20.1421C21.4053 17.361 23.7154 15.1066 26.5651 15.1066C29.4148 15.1066 31.725 17.361 31.725 20.1421C31.725 22.9231 29.4148 25.1776 26.5651 25.1776C23.7154 25.1776 21.4053 22.9231 21.4053 20.1421Z" fill="#1ABCFE"/>
<path fill-rule="evenodd" clip-rule="evenodd" d="M11.0854 30.2131C11.0854 27.4321 13.3956 25.1776 16.2453 25.1776H21.4052V30.2131C21.4052 32.9942 19.095 35.2487 16.2453 35.2487C13.3956 35.2487 11.0854 32.9942 11.0854 30.2131Z" fill="#0ACF83"/>
<path fill-rule="evenodd" clip-rule="evenodd" d="M21.4053 5.03552V15.1066H26.5651C29.4148 15.1066 31.725 12.8521 31.725 10.071C31.725 7.29 29.4148 5.03552 26.5651 5.03552H21.4053Z" fill="#FF7262"/>
<path fill-rule="evenodd" clip-rule="evenodd" d="M11.0854 10.071C11.0854 12.8521 13.3956 15.1066 16.2453 15.1066H21.4052V5.03552H16.2453C13.3956 5.03552 11.0854 7.29 11.0854 10.071Z" fill="#F24E1E"/>
<path fill-rule="evenodd" clip-rule="evenodd" d="M11.0854 20.1421C11.0854 22.9231 13.3956 25.1776 16.2453 25.1776H21.4052V15.1066H16.2453C13.3956 15.1066 11.0854 17.361 11.0854 20.1421Z" fill="#A259FF"/>
</svg>
